<mxfile host="app.diagrams.net" modified="2021-04-18T11:03:52.510Z" agent="5.0 (Windows NT 10.0; Win64; x64) AppleWebKit/537.36 (KHTML, like Gecko) Chrome/89.0.4389.128 Safari/537.36 Edg/89.0.774.77" etag="5m4LuKjEcmHfJgcevRbJ" version="14.6.1" type="github">
  <diagram id="C5RBs43oDa-KdzZeNtuy" name="Page-1">
    <mxGraphModel dx="1304" dy="579" grid="1" gridSize="10" guides="1" tooltips="1" connect="1" arrows="1" fold="1" page="1" pageScale="1" pageWidth="827" pageHeight="1169" math="0" shadow="0">
      <root>
        <mxCell id="WIyWlLk6GJQsqaUBKTNV-0" />
        <mxCell id="WIyWlLk6GJQsqaUBKTNV-1" parent="WIyWlLk6GJQsqaUBKTNV-0" />
        <mxCell id="GcOuq34sdKVvr9Sgp2Xw-8" value="" style="edgeStyle=orthogonalEdgeStyle;rounded=0;orthogonalLoop=1;jettySize=auto;html=1;" parent="WIyWlLk6GJQsqaUBKTNV-1" target="GcOuq34sdKVvr9Sgp2Xw-6" edge="1">
          <mxGeometry relative="1" as="geometry">
            <mxPoint x="414" y="200" as="sourcePoint" />
          </mxGeometry>
        </mxCell>
        <mxCell id="GcOuq34sdKVvr9Sgp2Xw-11" value="&lt;font style=&quot;font-size: 18px&quot;&gt;จริง&lt;/font&gt;" style="text;html=1;strokeColor=none;fillColor=none;align=center;verticalAlign=middle;whiteSpace=wrap;rounded=0;" parent="WIyWlLk6GJQsqaUBKTNV-1" vertex="1">
          <mxGeometry x="770" y="20" width="40" height="20" as="geometry" />
        </mxCell>
        <mxCell id="GcOuq34sdKVvr9Sgp2Xw-16" value="&lt;font style=&quot;font-size: 18px&quot;&gt;เท็จ&lt;/font&gt;" style="text;html=1;strokeColor=none;fillColor=none;align=center;verticalAlign=middle;whiteSpace=wrap;rounded=0;" parent="WIyWlLk6GJQsqaUBKTNV-1" vertex="1">
          <mxGeometry x="770" y="50" width="40" height="20" as="geometry" />
        </mxCell>
        <mxCell id="K-fDJgdVosySvQt8P5He-5" value="" style="edgeStyle=orthogonalEdgeStyle;rounded=0;orthogonalLoop=1;jettySize=auto;html=1;" edge="1" parent="WIyWlLk6GJQsqaUBKTNV-1" source="GcOuq34sdKVvr9Sgp2Xw-18" target="K-fDJgdVosySvQt8P5He-4">
          <mxGeometry relative="1" as="geometry" />
        </mxCell>
        <mxCell id="GcOuq34sdKVvr9Sgp2Xw-18" value="&lt;span style=&quot;font-family: &amp;#34;tahoma&amp;#34; ; font-size: 18px&quot;&gt;เริ่มต้น&lt;/span&gt;" style="ellipse;whiteSpace=wrap;html=1;" parent="WIyWlLk6GJQsqaUBKTNV-1" vertex="1">
          <mxGeometry x="344" width="101" height="60" as="geometry" />
        </mxCell>
        <mxCell id="K-fDJgdVosySvQt8P5He-7" value="" style="edgeStyle=orthogonalEdgeStyle;rounded=0;orthogonalLoop=1;jettySize=auto;html=1;" edge="1" parent="WIyWlLk6GJQsqaUBKTNV-1" source="K-fDJgdVosySvQt8P5He-4" target="K-fDJgdVosySvQt8P5He-6">
          <mxGeometry relative="1" as="geometry">
            <Array as="points">
              <mxPoint x="395" y="180" />
              <mxPoint x="395" y="180" />
            </Array>
          </mxGeometry>
        </mxCell>
        <mxCell id="K-fDJgdVosySvQt8P5He-4" value="ดึงข้อมูลจาก&lt;br&gt;&amp;nbsp;menu.txt" style="shape=parallelogram;perimeter=parallelogramPerimeter;whiteSpace=wrap;html=1;fixedSize=1;" vertex="1" parent="WIyWlLk6GJQsqaUBKTNV-1">
          <mxGeometry x="335" y="100" width="120" height="60" as="geometry" />
        </mxCell>
        <mxCell id="K-fDJgdVosySvQt8P5He-9" value="" style="edgeStyle=orthogonalEdgeStyle;rounded=0;orthogonalLoop=1;jettySize=auto;html=1;" edge="1" parent="WIyWlLk6GJQsqaUBKTNV-1" source="K-fDJgdVosySvQt8P5He-6" target="K-fDJgdVosySvQt8P5He-8">
          <mxGeometry relative="1" as="geometry" />
        </mxCell>
        <mxCell id="K-fDJgdVosySvQt8P5He-6" value="แสดงหน้าเมนู" style="shape=display;whiteSpace=wrap;html=1;" vertex="1" parent="WIyWlLk6GJQsqaUBKTNV-1">
          <mxGeometry x="330" y="200" width="130" height="50" as="geometry" />
        </mxCell>
        <mxCell id="K-fDJgdVosySvQt8P5He-11" value="" style="edgeStyle=orthogonalEdgeStyle;rounded=0;orthogonalLoop=1;jettySize=auto;html=1;" edge="1" parent="WIyWlLk6GJQsqaUBKTNV-1" source="K-fDJgdVosySvQt8P5He-8">
          <mxGeometry relative="1" as="geometry">
            <mxPoint x="395" y="400" as="targetPoint" />
          </mxGeometry>
        </mxCell>
        <mxCell id="K-fDJgdVosySvQt8P5He-8" value="ตัวเลือกที่ 1" style="rhombus;whiteSpace=wrap;html=1;" vertex="1" parent="WIyWlLk6GJQsqaUBKTNV-1">
          <mxGeometry x="337" y="280" width="116" height="80" as="geometry" />
        </mxCell>
        <mxCell id="K-fDJgdVosySvQt8P5He-14" value="" style="edgeStyle=orthogonalEdgeStyle;rounded=0;orthogonalLoop=1;jettySize=auto;html=1;" edge="1" parent="WIyWlLk6GJQsqaUBKTNV-1" source="K-fDJgdVosySvQt8P5He-12" target="K-fDJgdVosySvQt8P5He-13">
          <mxGeometry relative="1" as="geometry" />
        </mxCell>
        <mxCell id="K-fDJgdVosySvQt8P5He-12" value="แสดงหน้าลูกค้า" style="shape=display;whiteSpace=wrap;html=1;" vertex="1" parent="WIyWlLk6GJQsqaUBKTNV-1">
          <mxGeometry x="323" y="400" width="130" height="50" as="geometry" />
        </mxCell>
        <mxCell id="K-fDJgdVosySvQt8P5He-17" value="" style="edgeStyle=orthogonalEdgeStyle;rounded=0;orthogonalLoop=1;jettySize=auto;html=1;" edge="1" parent="WIyWlLk6GJQsqaUBKTNV-1" source="K-fDJgdVosySvQt8P5He-13" target="K-fDJgdVosySvQt8P5He-16">
          <mxGeometry relative="1" as="geometry" />
        </mxCell>
        <mxCell id="K-fDJgdVosySvQt8P5He-25" value="" style="edgeStyle=orthogonalEdgeStyle;rounded=0;orthogonalLoop=1;jettySize=auto;html=1;" edge="1" parent="WIyWlLk6GJQsqaUBKTNV-1" source="K-fDJgdVosySvQt8P5He-13" target="K-fDJgdVosySvQt8P5He-24">
          <mxGeometry relative="1" as="geometry" />
        </mxCell>
        <mxCell id="K-fDJgdVosySvQt8P5He-13" value="ตัวเลือกที่ 1" style="rhombus;whiteSpace=wrap;html=1;" vertex="1" parent="WIyWlLk6GJQsqaUBKTNV-1">
          <mxGeometry x="330" y="490" width="116" height="80" as="geometry" />
        </mxCell>
        <mxCell id="K-fDJgdVosySvQt8P5He-19" value="" style="edgeStyle=orthogonalEdgeStyle;rounded=0;orthogonalLoop=1;jettySize=auto;html=1;" edge="1" parent="WIyWlLk6GJQsqaUBKTNV-1" source="K-fDJgdVosySvQt8P5He-16" target="K-fDJgdVosySvQt8P5He-18">
          <mxGeometry relative="1" as="geometry" />
        </mxCell>
        <mxCell id="K-fDJgdVosySvQt8P5He-27" value="" style="edgeStyle=orthogonalEdgeStyle;rounded=0;orthogonalLoop=1;jettySize=auto;html=1;" edge="1" parent="WIyWlLk6GJQsqaUBKTNV-1" source="K-fDJgdVosySvQt8P5He-16" target="K-fDJgdVosySvQt8P5He-26">
          <mxGeometry relative="1" as="geometry" />
        </mxCell>
        <mxCell id="K-fDJgdVosySvQt8P5He-16" value="ตัวเลือกที่ 2" style="rhombus;whiteSpace=wrap;html=1;" vertex="1" parent="WIyWlLk6GJQsqaUBKTNV-1">
          <mxGeometry x="480" y="490" width="116" height="80" as="geometry" />
        </mxCell>
        <mxCell id="K-fDJgdVosySvQt8P5He-105" style="edgeStyle=orthogonalEdgeStyle;rounded=0;orthogonalLoop=1;jettySize=auto;html=1;exitX=0.5;exitY=1;exitDx=0;exitDy=0;" edge="1" parent="WIyWlLk6GJQsqaUBKTNV-1" source="K-fDJgdVosySvQt8P5He-18">
          <mxGeometry relative="1" as="geometry">
            <mxPoint x="540" y="1385" as="targetPoint" />
            <Array as="points">
              <mxPoint x="688" y="1385" />
            </Array>
          </mxGeometry>
        </mxCell>
        <mxCell id="K-fDJgdVosySvQt8P5He-18" value="ตัวเลือกที่ 3" style="rhombus;whiteSpace=wrap;html=1;" vertex="1" parent="WIyWlLk6GJQsqaUBKTNV-1">
          <mxGeometry x="630" y="490" width="116" height="80" as="geometry" />
        </mxCell>
        <mxCell id="K-fDJgdVosySvQt8P5He-20" value="&lt;font style=&quot;font-size: 18px&quot;&gt;จริง&lt;/font&gt;" style="text;html=1;strokeColor=none;fillColor=none;align=center;verticalAlign=middle;whiteSpace=wrap;rounded=0;" vertex="1" parent="WIyWlLk6GJQsqaUBKTNV-1">
          <mxGeometry x="400" y="370" width="40" height="20" as="geometry" />
        </mxCell>
        <mxCell id="K-fDJgdVosySvQt8P5He-21" value="&lt;font style=&quot;font-size: 18px&quot;&gt;จริง&lt;/font&gt;" style="text;html=1;strokeColor=none;fillColor=none;align=center;verticalAlign=middle;whiteSpace=wrap;rounded=0;" vertex="1" parent="WIyWlLk6GJQsqaUBKTNV-1">
          <mxGeometry x="394" y="575" width="40" height="20" as="geometry" />
        </mxCell>
        <mxCell id="K-fDJgdVosySvQt8P5He-22" value="&lt;font style=&quot;font-size: 18px&quot;&gt;เท็จ&lt;/font&gt;" style="text;html=1;strokeColor=none;fillColor=none;align=center;verticalAlign=middle;whiteSpace=wrap;rounded=0;" vertex="1" parent="WIyWlLk6GJQsqaUBKTNV-1">
          <mxGeometry x="446" y="500" width="40" height="20" as="geometry" />
        </mxCell>
        <mxCell id="K-fDJgdVosySvQt8P5He-23" value="&lt;font style=&quot;font-size: 18px&quot;&gt;เท็จ&lt;/font&gt;" style="text;html=1;strokeColor=none;fillColor=none;align=center;verticalAlign=middle;whiteSpace=wrap;rounded=0;" vertex="1" parent="WIyWlLk6GJQsqaUBKTNV-1">
          <mxGeometry x="596" y="500" width="40" height="20" as="geometry" />
        </mxCell>
        <mxCell id="K-fDJgdVosySvQt8P5He-33" value="" style="edgeStyle=orthogonalEdgeStyle;rounded=0;orthogonalLoop=1;jettySize=auto;html=1;" edge="1" parent="WIyWlLk6GJQsqaUBKTNV-1" source="K-fDJgdVosySvQt8P5He-24" target="K-fDJgdVosySvQt8P5He-32">
          <mxGeometry relative="1" as="geometry" />
        </mxCell>
        <mxCell id="K-fDJgdVosySvQt8P5He-24" value="แสดงหน้าซื้อสินค้า" style="shape=display;whiteSpace=wrap;html=1;" vertex="1" parent="WIyWlLk6GJQsqaUBKTNV-1">
          <mxGeometry x="323" y="600" width="130" height="50" as="geometry" />
        </mxCell>
        <mxCell id="K-fDJgdVosySvQt8P5He-74" value="" style="edgeStyle=orthogonalEdgeStyle;rounded=0;orthogonalLoop=1;jettySize=auto;html=1;" edge="1" parent="WIyWlLk6GJQsqaUBKTNV-1" source="K-fDJgdVosySvQt8P5He-26" target="K-fDJgdVosySvQt8P5He-73">
          <mxGeometry relative="1" as="geometry" />
        </mxCell>
        <mxCell id="K-fDJgdVosySvQt8P5He-26" value="แสดงหน้าค้นหา" style="shape=display;whiteSpace=wrap;html=1;" vertex="1" parent="WIyWlLk6GJQsqaUBKTNV-1">
          <mxGeometry x="473" y="600" width="130" height="50" as="geometry" />
        </mxCell>
        <mxCell id="K-fDJgdVosySvQt8P5He-30" value="&lt;font style=&quot;font-size: 18px&quot;&gt;จริง&lt;/font&gt;" style="text;html=1;strokeColor=none;fillColor=none;align=center;verticalAlign=middle;whiteSpace=wrap;rounded=0;" vertex="1" parent="WIyWlLk6GJQsqaUBKTNV-1">
          <mxGeometry x="540" y="575" width="40" height="20" as="geometry" />
        </mxCell>
        <mxCell id="K-fDJgdVosySvQt8P5He-31" value="&lt;font style=&quot;font-size: 18px&quot;&gt;จริง&lt;/font&gt;" style="text;html=1;strokeColor=none;fillColor=none;align=center;verticalAlign=middle;whiteSpace=wrap;rounded=0;" vertex="1" parent="WIyWlLk6GJQsqaUBKTNV-1">
          <mxGeometry x="690" y="585" width="40" height="20" as="geometry" />
        </mxCell>
        <mxCell id="K-fDJgdVosySvQt8P5He-62" value="" style="edgeStyle=orthogonalEdgeStyle;rounded=0;orthogonalLoop=1;jettySize=auto;html=1;" edge="1" parent="WIyWlLk6GJQsqaUBKTNV-1" source="K-fDJgdVosySvQt8P5He-32" target="K-fDJgdVosySvQt8P5He-59">
          <mxGeometry relative="1" as="geometry" />
        </mxCell>
        <mxCell id="K-fDJgdVosySvQt8P5He-32" value="เลือกสินค้าที่&lt;br&gt;ต้องการ" style="shape=parallelogram;perimeter=parallelogramPerimeter;whiteSpace=wrap;html=1;fixedSize=1;" vertex="1" parent="WIyWlLk6GJQsqaUBKTNV-1">
          <mxGeometry x="328" y="680" width="120" height="60" as="geometry" />
        </mxCell>
        <mxCell id="K-fDJgdVosySvQt8P5He-40" value="" style="edgeStyle=orthogonalEdgeStyle;rounded=0;orthogonalLoop=1;jettySize=auto;html=1;" edge="1" parent="WIyWlLk6GJQsqaUBKTNV-1" source="K-fDJgdVosySvQt8P5He-36" target="K-fDJgdVosySvQt8P5He-39">
          <mxGeometry relative="1" as="geometry" />
        </mxCell>
        <mxCell id="K-fDJgdVosySvQt8P5He-112" value="" style="edgeStyle=orthogonalEdgeStyle;rounded=0;orthogonalLoop=1;jettySize=auto;html=1;" edge="1" parent="WIyWlLk6GJQsqaUBKTNV-1" source="K-fDJgdVosySvQt8P5He-36" target="K-fDJgdVosySvQt8P5He-110">
          <mxGeometry relative="1" as="geometry" />
        </mxCell>
        <mxCell id="K-fDJgdVosySvQt8P5He-36" value="ยืนยันการซื้อ" style="rhombus;whiteSpace=wrap;html=1;" vertex="1" parent="WIyWlLk6GJQsqaUBKTNV-1">
          <mxGeometry x="330" y="960" width="116" height="80" as="geometry" />
        </mxCell>
        <mxCell id="K-fDJgdVosySvQt8P5He-48" value="" style="edgeStyle=orthogonalEdgeStyle;rounded=0;orthogonalLoop=1;jettySize=auto;html=1;" edge="1" parent="WIyWlLk6GJQsqaUBKTNV-1" source="K-fDJgdVosySvQt8P5He-39" target="K-fDJgdVosySvQt8P5He-47">
          <mxGeometry relative="1" as="geometry" />
        </mxCell>
        <mxCell id="K-fDJgdVosySvQt8P5He-39" value="รับเงินลูกค้า" style="shape=parallelogram;perimeter=parallelogramPerimeter;whiteSpace=wrap;html=1;fixedSize=1;" vertex="1" parent="WIyWlLk6GJQsqaUBKTNV-1">
          <mxGeometry x="328" y="1070" width="120" height="60" as="geometry" />
        </mxCell>
        <mxCell id="K-fDJgdVosySvQt8P5He-41" value="&lt;font style=&quot;font-size: 18px&quot;&gt;จริง&lt;/font&gt;" style="text;html=1;strokeColor=none;fillColor=none;align=center;verticalAlign=middle;whiteSpace=wrap;rounded=0;" vertex="1" parent="WIyWlLk6GJQsqaUBKTNV-1">
          <mxGeometry x="394" y="1040" width="40" height="20" as="geometry" />
        </mxCell>
        <mxCell id="K-fDJgdVosySvQt8P5He-60" value="" style="edgeStyle=orthogonalEdgeStyle;rounded=0;orthogonalLoop=1;jettySize=auto;html=1;" edge="1" parent="WIyWlLk6GJQsqaUBKTNV-1" source="K-fDJgdVosySvQt8P5He-42" target="K-fDJgdVosySvQt8P5He-36">
          <mxGeometry relative="1" as="geometry" />
        </mxCell>
        <mxCell id="K-fDJgdVosySvQt8P5He-42" value="รวมค่าใช้จ่ายสินค้า" style="whiteSpace=wrap;html=1;" vertex="1" parent="WIyWlLk6GJQsqaUBKTNV-1">
          <mxGeometry x="328" y="870" width="120" height="60" as="geometry" />
        </mxCell>
        <mxCell id="K-fDJgdVosySvQt8P5He-50" value="" style="edgeStyle=orthogonalEdgeStyle;rounded=0;orthogonalLoop=1;jettySize=auto;html=1;" edge="1" parent="WIyWlLk6GJQsqaUBKTNV-1" source="K-fDJgdVosySvQt8P5He-47" target="K-fDJgdVosySvQt8P5He-49">
          <mxGeometry relative="1" as="geometry" />
        </mxCell>
        <mxCell id="K-fDJgdVosySvQt8P5He-116" style="edgeStyle=orthogonalEdgeStyle;rounded=0;orthogonalLoop=1;jettySize=auto;html=1;" edge="1" parent="WIyWlLk6GJQsqaUBKTNV-1" source="K-fDJgdVosySvQt8P5He-47">
          <mxGeometry relative="1" as="geometry">
            <mxPoint x="250" y="1200" as="targetPoint" />
          </mxGeometry>
        </mxCell>
        <mxCell id="K-fDJgdVosySvQt8P5He-47" value="เงินพอจ่ายหรือไม่ ?" style="rhombus;whiteSpace=wrap;html=1;" vertex="1" parent="WIyWlLk6GJQsqaUBKTNV-1">
          <mxGeometry x="330" y="1160" width="116" height="80" as="geometry" />
        </mxCell>
        <mxCell id="K-fDJgdVosySvQt8P5He-99" value="" style="edgeStyle=orthogonalEdgeStyle;rounded=0;orthogonalLoop=1;jettySize=auto;html=1;" edge="1" parent="WIyWlLk6GJQsqaUBKTNV-1" source="K-fDJgdVosySvQt8P5He-49" target="K-fDJgdVosySvQt8P5He-88">
          <mxGeometry relative="1" as="geometry" />
        </mxCell>
        <mxCell id="K-fDJgdVosySvQt8P5He-49" value="ทอนเงินและ&lt;br&gt;ลบสต๊อกสินค้า" style="whiteSpace=wrap;html=1;" vertex="1" parent="WIyWlLk6GJQsqaUBKTNV-1">
          <mxGeometry x="328" y="1269" width="120" height="60" as="geometry" />
        </mxCell>
        <mxCell id="K-fDJgdVosySvQt8P5He-61" value="" style="edgeStyle=orthogonalEdgeStyle;rounded=0;orthogonalLoop=1;jettySize=auto;html=1;" edge="1" parent="WIyWlLk6GJQsqaUBKTNV-1" source="K-fDJgdVosySvQt8P5He-59" target="K-fDJgdVosySvQt8P5He-42">
          <mxGeometry relative="1" as="geometry" />
        </mxCell>
        <mxCell id="K-fDJgdVosySvQt8P5He-111" style="edgeStyle=orthogonalEdgeStyle;rounded=0;orthogonalLoop=1;jettySize=auto;html=1;entryX=0.5;entryY=0;entryDx=0;entryDy=0;" edge="1" parent="WIyWlLk6GJQsqaUBKTNV-1" source="K-fDJgdVosySvQt8P5He-59" target="K-fDJgdVosySvQt8P5He-110">
          <mxGeometry relative="1" as="geometry" />
        </mxCell>
        <mxCell id="K-fDJgdVosySvQt8P5He-59" value="สต๊อกสินค้าพอไหม ?" style="rhombus;whiteSpace=wrap;html=1;" vertex="1" parent="WIyWlLk6GJQsqaUBKTNV-1">
          <mxGeometry x="330" y="770" width="116" height="80" as="geometry" />
        </mxCell>
        <mxCell id="K-fDJgdVosySvQt8P5He-63" value="&lt;font style=&quot;font-size: 18px&quot;&gt;จริง&lt;/font&gt;" style="text;html=1;strokeColor=none;fillColor=none;align=center;verticalAlign=middle;whiteSpace=wrap;rounded=0;" vertex="1" parent="WIyWlLk6GJQsqaUBKTNV-1">
          <mxGeometry x="400" y="840" width="40" height="20" as="geometry" />
        </mxCell>
        <mxCell id="K-fDJgdVosySvQt8P5He-65" value="กลับเมนูหรือไม่ ?" style="rhombus;whiteSpace=wrap;html=1;" vertex="1" parent="WIyWlLk6GJQsqaUBKTNV-1">
          <mxGeometry x="330" y="1430" width="116" height="80" as="geometry" />
        </mxCell>
        <mxCell id="K-fDJgdVosySvQt8P5He-71" value="" style="endArrow=classic;html=1;exitX=0;exitY=0.5;exitDx=0;exitDy=0;" edge="1" parent="WIyWlLk6GJQsqaUBKTNV-1" source="K-fDJgdVosySvQt8P5He-65">
          <mxGeometry width="50" height="50" relative="1" as="geometry">
            <mxPoint x="260" y="1400" as="sourcePoint" />
            <mxPoint x="390" y="180" as="targetPoint" />
            <Array as="points">
              <mxPoint x="170" y="1470" />
              <mxPoint x="170" y="180" />
            </Array>
          </mxGeometry>
        </mxCell>
        <mxCell id="K-fDJgdVosySvQt8P5He-72" value="&lt;font style=&quot;font-size: 18px&quot;&gt;จริง&lt;/font&gt;" style="text;html=1;strokeColor=none;fillColor=none;align=center;verticalAlign=middle;whiteSpace=wrap;rounded=0;" vertex="1" parent="WIyWlLk6GJQsqaUBKTNV-1">
          <mxGeometry x="130" y="940" width="40" height="20" as="geometry" />
        </mxCell>
        <mxCell id="K-fDJgdVosySvQt8P5He-76" value="" style="edgeStyle=orthogonalEdgeStyle;rounded=0;orthogonalLoop=1;jettySize=auto;html=1;" edge="1" parent="WIyWlLk6GJQsqaUBKTNV-1" source="K-fDJgdVosySvQt8P5He-73" target="K-fDJgdVosySvQt8P5He-75">
          <mxGeometry relative="1" as="geometry" />
        </mxCell>
        <mxCell id="K-fDJgdVosySvQt8P5He-73" value="เลือกสิ่งที่ต้องการ&lt;br&gt;ค้นหา" style="shape=parallelogram;perimeter=parallelogramPerimeter;whiteSpace=wrap;html=1;fixedSize=1;" vertex="1" parent="WIyWlLk6GJQsqaUBKTNV-1">
          <mxGeometry x="478" y="680" width="120" height="60" as="geometry" />
        </mxCell>
        <mxCell id="K-fDJgdVosySvQt8P5He-79" value="" style="edgeStyle=orthogonalEdgeStyle;rounded=0;orthogonalLoop=1;jettySize=auto;html=1;" edge="1" parent="WIyWlLk6GJQsqaUBKTNV-1" source="K-fDJgdVosySvQt8P5He-75" target="K-fDJgdVosySvQt8P5He-78">
          <mxGeometry relative="1" as="geometry" />
        </mxCell>
        <mxCell id="K-fDJgdVosySvQt8P5He-75" value="มีรายการสินค้าไหม ?" style="rhombus;whiteSpace=wrap;html=1;" vertex="1" parent="WIyWlLk6GJQsqaUBKTNV-1">
          <mxGeometry x="480" y="770" width="116" height="80" as="geometry" />
        </mxCell>
        <mxCell id="K-fDJgdVosySvQt8P5He-81" value="" style="edgeStyle=orthogonalEdgeStyle;rounded=0;orthogonalLoop=1;jettySize=auto;html=1;" edge="1" parent="WIyWlLk6GJQsqaUBKTNV-1" source="K-fDJgdVosySvQt8P5He-78" target="K-fDJgdVosySvQt8P5He-80">
          <mxGeometry relative="1" as="geometry" />
        </mxCell>
        <mxCell id="K-fDJgdVosySvQt8P5He-78" value="แสดงสินค้าที่ค้นพบ" style="shape=display;whiteSpace=wrap;html=1;" vertex="1" parent="WIyWlLk6GJQsqaUBKTNV-1">
          <mxGeometry x="473" y="875" width="130" height="50" as="geometry" />
        </mxCell>
        <mxCell id="K-fDJgdVosySvQt8P5He-119" style="edgeStyle=orthogonalEdgeStyle;rounded=0;orthogonalLoop=1;jettySize=auto;html=1;entryX=1;entryY=0.5;entryDx=0;entryDy=0;" edge="1" parent="WIyWlLk6GJQsqaUBKTNV-1" source="K-fDJgdVosySvQt8P5He-80" target="K-fDJgdVosySvQt8P5He-88">
          <mxGeometry relative="1" as="geometry">
            <Array as="points">
              <mxPoint x="538" y="1385" />
            </Array>
          </mxGeometry>
        </mxCell>
        <mxCell id="K-fDJgdVosySvQt8P5He-80" value="ดำเนินรายการ&lt;br&gt;ต่อไหม ?" style="rhombus;whiteSpace=wrap;html=1;" vertex="1" parent="WIyWlLk6GJQsqaUBKTNV-1">
          <mxGeometry x="480" y="960" width="116" height="80" as="geometry" />
        </mxCell>
        <mxCell id="K-fDJgdVosySvQt8P5He-83" value="" style="endArrow=classic;html=1;exitX=0;exitY=0.5;exitDx=0;exitDy=0;" edge="1" parent="WIyWlLk6GJQsqaUBKTNV-1" source="K-fDJgdVosySvQt8P5He-80">
          <mxGeometry width="50" height="50" relative="1" as="geometry">
            <mxPoint x="600" y="910" as="sourcePoint" />
            <mxPoint x="390" y="660" as="targetPoint" />
            <Array as="points">
              <mxPoint x="460" y="1000" />
              <mxPoint x="460" y="660" />
            </Array>
          </mxGeometry>
        </mxCell>
        <mxCell id="K-fDJgdVosySvQt8P5He-86" value="&lt;font style=&quot;font-size: 18px&quot;&gt;จริง&lt;/font&gt;" style="text;html=1;strokeColor=none;fillColor=none;align=center;verticalAlign=middle;whiteSpace=wrap;rounded=0;" vertex="1" parent="WIyWlLk6GJQsqaUBKTNV-1">
          <mxGeometry x="460" y="960" width="40" height="20" as="geometry" />
        </mxCell>
        <mxCell id="K-fDJgdVosySvQt8P5He-107" value="" style="edgeStyle=orthogonalEdgeStyle;rounded=0;orthogonalLoop=1;jettySize=auto;html=1;" edge="1" parent="WIyWlLk6GJQsqaUBKTNV-1" source="K-fDJgdVosySvQt8P5He-88" target="K-fDJgdVosySvQt8P5He-65">
          <mxGeometry relative="1" as="geometry" />
        </mxCell>
        <mxCell id="K-fDJgdVosySvQt8P5He-88" value="" style="ellipse;whiteSpace=wrap;html=1;aspect=fixed;" vertex="1" parent="WIyWlLk6GJQsqaUBKTNV-1">
          <mxGeometry x="373" y="1370" width="30" height="30" as="geometry" />
        </mxCell>
        <mxCell id="K-fDJgdVosySvQt8P5He-93" value="&lt;font style=&quot;font-size: 18px&quot;&gt;เท็จ&lt;/font&gt;" style="text;html=1;strokeColor=none;fillColor=none;align=center;verticalAlign=middle;whiteSpace=wrap;rounded=0;" vertex="1" parent="WIyWlLk6GJQsqaUBKTNV-1">
          <mxGeometry x="540" y="1120" width="40" height="20" as="geometry" />
        </mxCell>
        <mxCell id="K-fDJgdVosySvQt8P5He-96" value="&lt;font style=&quot;font-size: 18px&quot;&gt;จริง&lt;/font&gt;" style="text;html=1;strokeColor=none;fillColor=none;align=center;verticalAlign=middle;whiteSpace=wrap;rounded=0;" vertex="1" parent="WIyWlLk6GJQsqaUBKTNV-1">
          <mxGeometry x="550" y="850" width="40" height="20" as="geometry" />
        </mxCell>
        <mxCell id="K-fDJgdVosySvQt8P5He-115" style="edgeStyle=orthogonalEdgeStyle;rounded=0;orthogonalLoop=1;jettySize=auto;html=1;entryX=0;entryY=0.5;entryDx=0;entryDy=0;" edge="1" parent="WIyWlLk6GJQsqaUBKTNV-1" source="K-fDJgdVosySvQt8P5He-98" target="K-fDJgdVosySvQt8P5He-88">
          <mxGeometry relative="1" as="geometry">
            <Array as="points">
              <mxPoint x="245" y="1385" />
            </Array>
          </mxGeometry>
        </mxCell>
        <mxCell id="K-fDJgdVosySvQt8P5He-98" value="แสดงหน้ายกเลิกหรือ&lt;br&gt;ผิดพลาด" style="shape=display;whiteSpace=wrap;html=1;" vertex="1" parent="WIyWlLk6GJQsqaUBKTNV-1">
          <mxGeometry x="180" y="1269" width="130" height="50" as="geometry" />
        </mxCell>
        <mxCell id="K-fDJgdVosySvQt8P5He-109" value="&lt;font style=&quot;font-size: 18px&quot;&gt;เท็จ&lt;/font&gt;" style="text;html=1;strokeColor=none;fillColor=none;align=center;verticalAlign=middle;whiteSpace=wrap;rounded=0;" vertex="1" parent="WIyWlLk6GJQsqaUBKTNV-1">
          <mxGeometry x="270" y="780" width="40" height="20" as="geometry" />
        </mxCell>
        <mxCell id="K-fDJgdVosySvQt8P5He-114" value="" style="edgeStyle=orthogonalEdgeStyle;rounded=0;orthogonalLoop=1;jettySize=auto;html=1;" edge="1" parent="WIyWlLk6GJQsqaUBKTNV-1" source="K-fDJgdVosySvQt8P5He-110" target="K-fDJgdVosySvQt8P5He-98">
          <mxGeometry relative="1" as="geometry" />
        </mxCell>
        <mxCell id="K-fDJgdVosySvQt8P5He-110" value="" style="ellipse;whiteSpace=wrap;html=1;aspect=fixed;" vertex="1" parent="WIyWlLk6GJQsqaUBKTNV-1">
          <mxGeometry x="230" y="985" width="30" height="30" as="geometry" />
        </mxCell>
        <mxCell id="K-fDJgdVosySvQt8P5He-113" value="&lt;font style=&quot;font-size: 18px&quot;&gt;เท็จ&lt;/font&gt;" style="text;html=1;strokeColor=none;fillColor=none;align=center;verticalAlign=middle;whiteSpace=wrap;rounded=0;" vertex="1" parent="WIyWlLk6GJQsqaUBKTNV-1">
          <mxGeometry x="283" y="980" width="40" height="20" as="geometry" />
        </mxCell>
        <mxCell id="K-fDJgdVosySvQt8P5He-117" value="&lt;font style=&quot;font-size: 18px&quot;&gt;เท็จ&lt;/font&gt;" style="text;html=1;strokeColor=none;fillColor=none;align=center;verticalAlign=middle;whiteSpace=wrap;rounded=0;" vertex="1" parent="WIyWlLk6GJQsqaUBKTNV-1">
          <mxGeometry x="270" y="1180" width="40" height="20" as="geometry" />
        </mxCell>
        <mxCell id="K-fDJgdVosySvQt8P5He-118" value="&lt;font style=&quot;font-size: 18px&quot;&gt;จริง&lt;/font&gt;" style="text;html=1;strokeColor=none;fillColor=none;align=center;verticalAlign=middle;whiteSpace=wrap;rounded=0;" vertex="1" parent="WIyWlLk6GJQsqaUBKTNV-1">
          <mxGeometry x="394" y="1240" width="40" height="20" as="geometry" />
        </mxCell>
      </root>
    </mxGraphModel>
  </diagram>
</mxfile>
